<svg width="176" height="176" viewBox="0 0 176 176" fill="none" xmlns="http://www.w3.org/2000/svg">
<g transform="translate(50 50) scale(1.75) translate(-50 -50)">
<path fill-rule="evenodd" clip-rule="evenodd" d="M116.44 40C114.783 40 113.44 41.3431 113.44 43V60.04C113.44 61.6968 114.783 63.04 116.44 63.04H133C134.657 63.04 136 61.6968 136 60.04V43C136 41.3431 134.657 40 133 40H116.44ZM43 112.96C41.3431 112.96 40 114.303 40 115.96V133C40 134.657 41.3431 136 43 136H59.56C61.2168 136 62.56 134.657 62.56 133V115.96C62.56 114.303 61.2168 112.96 59.56 112.96H43ZM136 86.1996C136 84.5428 134.657 83.1996 133 83.1996H105.596C103.939 83.1996 102.596 84.5428 102.596 86.1996V99.5955C102.596 101.252 101.253 102.596 99.5959 102.596H86.2C84.5432 102.596 83.2 103.939 83.2 105.596V133C83.2 134.656 84.5432 136 86.2 136H133C134.657 136 136 134.656 136 133V86.1996ZM89.7999 40C91.4568 40 92.7999 41.3431 92.7999 43V70.404C92.7999 72.0609 91.4568 73.404 89.7999 73.404H76.404C74.7472 73.404 73.404 74.7472 73.404 76.404V89.7999C73.404 91.4568 72.0609 92.7999 70.404 92.7999H43C41.3431 92.7999 40 91.4568 40 89.7999V43C40 41.3431 41.3431 40 43 40H89.7999Z" fill="#2FCE67"/>
</g>
</svg>
