<svg width="492" height="176" viewBox="0 0 492 176" fill="none" xmlns="http://www.w3.org/2000/svg">

<path fill-rule="evenodd" clip-rule="evenodd" d="M116.44 40C114.783 40 113.44 41.3431 113.44 43V60.04C113.44 61.6968 114.783 63.04 116.44 63.04H133C134.657 63.04 136 61.6968 136 60.04V43C136 41.3431 134.657 40 133 40H116.44ZM43 112.96C41.3431 112.96 40 114.303 40 115.96V133C40 134.657 41.3431 136 43 136H59.56C61.2168 136 62.56 134.657 62.56 133V115.96C62.56 114.303 61.2168 112.96 59.56 112.96H43ZM136 86.1996C136 84.5428 134.657 83.1996 133 83.1996H105.596C103.939 83.1996 102.596 84.5428 102.596 86.1996V99.5955C102.596 101.252 101.253 102.596 99.5959 102.596H86.2C84.5432 102.596 83.2 103.939 83.2 105.596V133C83.2 134.656 84.5432 136 86.2 136H133C134.657 136 136 134.656 136 133V86.1996ZM89.7999 40C91.4568 40 92.7999 41.3431 92.7999 43V70.404C92.7999 72.0609 91.4568 73.404 89.7999 73.404H76.404C74.7472 73.404 73.404 74.7472 73.404 76.404V89.7999C73.404 91.4568 72.0609 92.7999 70.404 92.7999H43C41.3431 92.7999 40 91.4568 40 89.7999V43C40 41.3431 41.3431 40 43 40H89.7999Z" fill="#2FCE67"/>
<path d="M425.147 122.176C420.411 122.176 416.347 121.056 412.955 118.816C409.627 116.512 407.035 113.472 405.179 109.696C403.387 105.92 402.491 101.696 402.491 97.024C402.491 92.416 403.387 88.256 405.179 84.544C407.035 80.768 409.659 77.792 413.051 75.616C416.443 73.376 420.475 72.256 425.147 72.256C428.475 72.256 431.579 72.96 434.459 74.368C436.139 75.1523 437.635 76.1547 438.945 77.375C439.809 78.1795 441.467 77.6154 441.467 76.435V55.024C441.467 54.3612 442.004 53.824 442.667 53.824H451.211C451.873 53.824 452.411 54.3612 452.411 55.024V119.824C452.411 120.487 451.873 121.024 451.211 121.024H442.908C442.264 121.024 441.734 120.516 441.709 119.872L441.627 117.839C441.58 116.648 439.835 116.135 438.984 116.97C437.807 118.124 436.426 119.123 434.843 119.968C431.963 121.44 428.731 122.176 425.147 122.176ZM427.547 112.672C430.427 112.672 432.891 112 434.939 110.656C436.987 109.312 438.587 107.488 439.739 105.184C440.891 102.816 441.467 100.16 441.467 97.216C441.467 93.824 440.795 90.976 439.451 88.672C438.171 86.368 436.443 84.64 434.267 83.488C432.155 82.336 429.883 81.76 427.451 81.76C424.763 81.76 422.363 82.432 420.251 83.776C418.203 85.056 416.571 86.848 415.355 89.152C414.203 91.392 413.627 94.048 413.627 97.12C413.627 100.128 414.235 102.816 415.451 105.184C416.667 107.488 418.299 109.312 420.347 110.656C422.459 112 424.859 112.672 427.547 112.672Z" fill="#01031A"/>
<path d="M372.96 122.175C368.16 122.175 363.968 121.119 360.384 119.007C356.8 116.831 353.984 113.887 351.936 110.175C349.952 106.399 348.96 102.079 348.96 97.2146C348.96 92.1586 349.952 87.7746 351.936 84.0626C353.984 80.3506 356.8 77.4706 360.384 75.4226C364.032 73.3106 368.256 72.2546 373.056 72.2546C377.728 72.2546 381.792 73.2786 385.248 75.3266C388.704 77.3106 391.424 80.0626 393.408 83.5826C395.392 87.1026 396.384 91.1026 396.384 95.5826C396.384 96.4786 396.352 97.2786 396.288 97.9826C396.288 98.3889 396.267 98.8164 396.224 99.2652C396.168 99.8549 395.659 100.287 395.066 100.287H361.2C360.501 100.287 359.946 100.883 360.046 101.575C360.334 103.559 360.927 105.37 361.824 107.007C362.912 108.927 364.384 110.431 366.24 111.519C368.16 112.607 370.336 113.151 372.768 113.151C375.392 113.151 377.6 112.575 379.392 111.423C381.05 110.394 382.375 108.957 383.369 107.111C383.59 106.702 384.009 106.431 384.473 106.431H393.506C394.315 106.431 394.892 107.215 394.596 107.968C393.701 110.252 392.441 112.363 390.816 114.303C388.896 116.671 386.432 118.591 383.424 120.063C380.48 121.471 376.992 122.175 372.96 122.175ZM360.223 91.3532C360.08 92.0636 360.643 92.7026 361.368 92.7026H384.026C384.697 92.7026 385.244 92.1506 385.175 91.4828C384.872 88.5335 383.648 86.1561 381.504 84.3506C379.072 82.3026 376.16 81.2786 372.768 81.2786C369.696 81.2786 366.912 82.2066 364.416 84.0626C362.273 85.6979 360.876 88.1281 360.223 91.3532Z" fill="#01031A"/>
<path d="M304.55 121.025C303.59 121.025 303.019 119.954 303.554 119.157L317.881 97.7941C318.154 97.3873 318.152 96.8557 317.877 96.4508L303.48 75.2838C302.938 74.4871 303.509 73.4089 304.472 73.4089H313.664C314.062 73.4089 314.434 73.6066 314.658 73.9366L324.315 88.2131C324.799 88.9288 325.859 88.9136 326.322 88.1842L335.355 73.9655C335.575 73.6189 335.957 73.4089 336.368 73.4089H345.065C346.027 73.4089 346.598 74.4841 346.059 75.2811L331.747 96.4495C331.472 96.8552 331.472 97.3869 331.746 97.7928L346.158 119.154C346.696 119.951 346.125 121.025 345.163 121.025H336.057C335.659 121.025 335.287 120.828 335.064 120.499L325.314 106.126C324.828 105.41 323.768 105.427 323.306 106.159L314.27 120.466C314.05 120.814 313.667 121.025 313.255 121.025H304.55Z" fill="#01031A"/>
<path d="M275.473 122.175C270.801 122.175 266.609 121.151 262.897 119.103C259.185 117.055 256.241 114.175 254.065 110.463C251.953 106.687 250.897 102.271 250.897 97.2146C250.897 92.0306 252.017 87.5826 254.257 83.8706C256.497 80.1586 259.505 77.3106 263.281 75.3266C267.057 73.2786 271.249 72.2546 275.857 72.2546C280.529 72.2546 284.721 73.2786 288.433 75.3266C292.209 77.3106 295.185 80.1586 297.361 83.8706C299.601 87.5826 300.721 92.0306 300.721 97.2146C300.721 102.015 299.633 106.303 297.457 110.079C295.345 113.855 292.369 116.831 288.529 119.007C284.753 121.119 280.401 122.175 275.473 122.175ZM275.569 112.767C278.321 112.767 280.721 112.095 282.769 110.751C284.881 109.343 286.545 107.455 287.761 105.087C288.977 102.719 289.585 100.031 289.585 97.0226C289.585 93.8866 288.977 91.1666 287.761 88.8626C286.545 86.5586 284.881 84.7986 282.769 83.5826C280.721 82.3026 278.353 81.6626 275.665 81.6626C272.849 81.6626 270.385 82.3346 268.273 83.6786C266.225 85.0226 264.657 86.8786 263.569 89.2466C262.481 91.5506 261.937 94.2066 261.937 97.2146C261.937 100.479 262.545 103.295 263.761 105.663C265.041 107.967 266.705 109.727 268.753 110.943C270.865 112.159 273.137 112.767 275.569 112.767Z" fill="#01031A"/>
<path d="M233.012 121.024C232.349 121.024 231.812 120.487 231.812 119.824V55.024C231.812 54.3612 232.349 53.824 233.012 53.824H241.46C242.123 53.824 242.66 54.3612 242.66 55.024V119.824C242.66 120.487 242.123 121.024 241.46 121.024H233.012Z" fill="#01031A"/>
<path d="M175.2 121.024C174.537 121.024 174 120.487 174 119.824V55.0242C174 54.3615 174.537 53.8242 175.2 53.8242H198.672C205.456 53.8242 210.672 55.3602 214.32 58.4322C218.032 61.5042 219.888 65.5362 219.888 70.5282C219.888 74.2402 218.96 77.3122 217.104 79.7442C215.941 81.268 214.602 82.5154 213.088 83.4864C212.15 84.0875 212.163 85.7328 213.139 86.2703C214.418 86.9749 215.612 87.8076 216.72 88.7682C218.64 90.4322 220.144 92.3842 221.232 94.6242C222.384 96.8642 222.96 99.3282 222.96 102.016C222.96 105.6 222.128 108.832 220.464 111.712C218.8 114.592 216.336 116.864 213.072 118.528C209.872 120.192 205.872 121.024 201.072 121.024H175.2ZM184.944 110.608C184.944 111.271 185.481 111.808 186.144 111.808H199.536C203.568 111.808 206.64 110.912 208.752 109.12C210.864 107.328 211.92 104.64 211.92 101.056C211.92 97.4722 210.8 94.7842 208.56 92.9922C206.32 91.2002 203.248 90.3042 199.344 90.3042H186.144C185.481 90.3042 184.944 90.8415 184.944 91.5042V110.608ZM184.944 79.9842C184.944 80.647 185.481 81.1842 186.144 81.1842H197.808C201.52 81.1842 204.272 80.4162 206.064 78.8802C207.856 77.2802 208.752 75.0082 208.752 72.0642C208.752 69.1842 207.856 66.9762 206.064 65.4402C204.272 63.8402 201.456 63.0402 197.616 63.0402H186.144C185.481 63.0402 184.944 63.5775 184.944 64.2402V79.9842Z" fill="#01031A"/>
</svg>
